<svg xmlns="http://www.w3.org/2000/svg" viewBox="532 274 423 266" width="423" height="266">
  <defs>
    <clipPath id="crop">
      <polygon points="536.6,480.6 573.6,385.4 633.0,349.5 678.9,331.6 722.6,327.1 766.3,324.9 817.9,322.7 894.0,307.0 927.6,284.6 942.2,279.0 951.2,281.2 950.1,302.5 928.8,345.1 875.0,405.6 829.1,466.1 785.4,504.2 729.3,529.9 667.7,536.6 559.1,512.0"/>
    </clipPath>
  </defs>
  <g clip-path="url(#crop)">
    <path d="M 504.796 160.852 C 501.109 165.609, 493.989 174.675, 488.974 181 C 483.958 187.325, 478.542 194.750, 476.936 197.500 C 463.836 219.944, 468.669 244.182, 488.189 253.936 C 491.561 255.621, 494.869 257, 495.541 257 C 496.213 257, 497.915 255.489, 499.324 253.641 L 501.886 250.283 498.193 249.174 C 493.211 247.678, 487.215 241.658, 484.219 235.143 C 482.092 230.518, 481.818 228.742, 482.214 222.143 C 482.785 212.625, 485.091 207.855, 496.163 193.286 C 500.619 187.421, 505.857 180.136, 507.801 177.097 L 511.336 171.570 513.418 174.459 C 514.563 176.048, 519.898 183.232, 525.273 190.424 C 535.651 204.309, 539.268 210.771, 541.008 218.535 C 543.659 230.364, 536.636 243.971, 525.291 248.990 L 520.836 250.960 523.041 254.058 C 525.533 257.558, 527.081 257.517, 534.974 253.744 C 550.049 246.537, 557.702 226.908, 552.029 210 C 548.986 200.930, 542.997 191.699, 528.230 173.317 C 521.228 164.602, 514.600 156.287, 513.500 154.838 L 511.500 152.204 504.796 160.852 M 509.245 198.117 C 508.163 200.528, 505.227 205.264, 502.720 208.642 C 495.900 217.834, 494.707 220.603, 495.230 226.038 C 496.075 234.833, 502.345 240.355, 511.541 240.402 C 520.308 240.448, 526.794 235.007, 527.715 226.834 C 528.320 221.466, 526.602 217.036, 521.073 209.713 C 518.831 206.744, 515.696 201.934, 514.104 199.024 L 511.211 193.734 509.245 198.117 M 446.053 246.173 C 442.396 255.427, 440.043 265.436, 440.017 271.844 L 440 276.188 434.873 272.505 L 429.747 268.821 430.383 272.161 C 430.733 273.997, 431.448 282.025, 431.972 290 C 433.098 307.128, 433.975 311.743, 437.866 321.002 C 444.568 336.955, 458.238 351.128, 474.500 358.985 C 480 361.643, 486.975 364.421, 490 365.159 L 495.500 366.500 491.463 366.797 C 486.630 367.153, 472.539 362.442, 463 357.282 C 450.703 350.629, 442.870 343.467, 433.891 330.664 C 430.420 325.715, 429.348 325.130, 415.187 320.475 C 405.507 317.294, 388.212 316.287, 389.179 318.962 C 389.356 319.451, 393.433 324.575, 398.241 330.348 C 416.859 352.706, 438.734 365.228, 465.910 369.084 C 474.825 370.348, 489.821 369.779, 494.506 367.998 L 497.242 366.957 490.871 362.096 C 482.769 355.913, 479.975 352.901, 475.626 345.657 C 469.949 336.200, 467.455 320.366, 469.950 309.612 C 470.822 305.850, 470.690 305.552, 465.870 300.456 C 462.887 297.302, 458.003 293.687, 453.695 291.443 C 441.151 284.912, 433.112 279.293, 432.431 276.582 C 431.185 271.618, 432.581 271.528, 437.627 276.248 C 440.538 278.971, 446.756 282.967, 452.558 285.843 C 458.026 288.553, 464.635 292.659, 467.245 294.966 L 471.990 299.162 476.440 289.575 L 480.889 279.989 479.380 274.906 C 477.768 269.481, 473.459 264.566, 461.112 254.070 C 456.611 250.243, 454.005 247.068, 452.289 243.320 C 450.949 240.394, 449.725 238, 449.568 238 C 449.411 238, 447.829 241.678, 446.053 246.173 M 571.061 241.708 C 569.515 245.984, 561.748 254.546, 554.768 259.671 C 549.217 263.745, 544.724 269.821, 543.046 275.523 C 541.942 279.272, 542.127 280.058, 546.274 289.216 L 550.673 298.932 554.087 295.410 C 555.964 293.473, 562.295 289.469, 568.155 286.511 C 574.015 283.553, 580.912 279.528, 583.481 277.566 C 588.907 273.425, 590.411 273.093, 589.449 276.250 C 588.293 280.042, 586.348 281.525, 573.861 288.128 C 559.435 295.757, 551.467 302.729, 552.415 306.893 C 555.118 318.773, 553.452 333.612, 548.258 343.906 C 545.028 350.309, 537.434 358.951, 532.191 362.191 C 522.944 367.906, 541.181 363.598, 553.495 357.158 C 562.204 352.604, 574.969 340.135, 580.276 331 C 586.637 320.048, 589.004 310.771, 590.097 292.500 C 590.624 283.700, 591.469 274.715, 591.976 272.532 C 592.483 270.350, 592.765 268.432, 592.603 268.270 C 592.442 268.108, 590.215 269.819, 587.655 272.073 L 583 276.170 582.965 272.335 C 582.901 265.289, 580.277 253.527, 577.029 245.724 C 575.260 241.476, 573.496 238, 573.108 238 C 572.719 238, 571.798 239.668, 571.061 241.708 M 509.446 258.130 C 508.495 259.983, 503.979 266.774, 499.410 273.219 C 484.673 294.010, 480.066 302.924, 477.815 315 C 475.830 325.654, 479.722 343.709, 486.071 353.293 C 491.620 361.671, 500.714 368.432, 507.434 369.175 L 510.368 369.500 510.102 364.099 C 509.956 361.128, 509.395 357.538, 508.855 356.120 C 508.206 354.411, 508.214 353.429, 508.881 353.206 C 509.435 353.022, 509.604 352.112, 509.257 351.185 C 508.687 349.665, 508.806 349.647, 510.466 351 C 511.479 351.825, 512.463 352.387, 512.654 352.250 C 514.155 351.166, 514.823 352.335, 513.975 354.565 C 512.793 357.675, 512.670 370, 513.822 370 C 514.274 370, 516.696 369.301, 519.205 368.446 C 528.653 365.227, 537.991 354.028, 542.549 340.449 C 547.470 325.790, 545.390 307.079, 537.276 293 C 535.849 290.525, 530.258 282.330, 524.850 274.789 C 519.443 267.248, 514.154 259.657, 513.097 257.919 L 511.176 254.760 509.446 258.130 M 370.750 265.627 C 368.575 266.273, 368.525 265.897, 371.499 271.220 C 372.874 273.680, 375.099 280.665, 376.443 286.744 C 379.202 299.218, 380.950 303.934, 384.572 308.683 C 388.033 313.220, 389.008 313.606, 402.587 315.813 C 409.166 316.882, 417.607 318.980, 421.345 320.475 C 425.082 321.970, 428.294 323.037, 428.483 322.847 C 428.671 322.656, 427.741 318.450, 426.416 313.500 C 424.706 307.114, 424.006 301.850, 424.003 295.377 L 424 286.255 419.496 282.103 C 412.677 275.818, 403.391 270.201, 396.090 267.946 C 389.736 265.983, 374.303 264.571, 370.750 265.627 M 631.131 266.493 C 621.791 268.590, 612.507 273.311, 605.330 279.611 L 599 285.169 599 292.997 C 599 301.614, 597 313.672, 594.629 319.347 C 593.789 321.356, 593.319 323, 593.583 323 C 594.583 323, 601.399 319.914, 602.599 318.918 C 603.288 318.346, 606.697 317.704, 610.176 317.490 C 613.654 317.276, 620.654 316.238, 625.732 315.183 C 632.816 313.712, 635.420 312.712, 636.923 310.883 C 640.875 306.075, 644.030 298.228, 646.485 287.096 C 647.869 280.824, 650.132 273.668, 651.515 271.194 C 652.898 268.720, 653.762 266.429, 653.435 266.102 C 652.194 264.861, 637.231 265.123, 631.131 266.493 M 551.734 276.500 C 551.343 278.700, 551.072 282.300, 551.133 284.500 C 551.228 287.944, 551.368 287.666, 552.138 282.500 C 553.164 275.614, 552.815 270.430, 551.734 276.500 M 941.430 286.273 C 910.927 311.679, 870.274 325.943, 814 330.985 C 807.675 331.552, 784.500 332.456, 762.500 332.995 C 740.500 333.534, 717.550 334.473, 711.500 335.082 C 651.902 341.080, 604.036 364.846, 575.717 402.500 C 568.468 412.139, 558.955 431.272, 556.039 442.078 C 553.359 452.012, 551.003 465.299, 551.001 470.492 L 551 474.484 553.622 469.492 C 577.508 424.012, 613.324 393.236, 660.169 377.939 C 683.393 370.355, 706.238 366.915, 746 365.014 C 780.783 363.352, 802.638 360.922, 827 356.006 C 879.015 345.511, 914.532 326.459, 936.350 297.351 C 942.335 289.366, 946.499 283, 945.737 283 C 945.529 283, 943.591 284.473, 941.430 286.273 M 79.525 286.750 C 94.931 310.889, 111.216 324.754, 140.228 338.433 C 157.913 346.771, 178.502 353.045, 202.558 357.429 C 225.401 361.592, 244.978 363.434, 288.500 365.514 C 344.633 368.197, 384.046 380.725, 418.500 406.836 C 437.238 421.037, 458.118 446.276, 468.893 467.750 C 470.618 471.188, 472.151 474, 472.301 474 C 472.451 474, 472.273 470.504, 471.906 466.232 C 465.872 396.025, 404.241 345.131, 313.500 335.422 C 305.684 334.586, 280.729 333.515, 257 332.998 C 211.615 332.008, 193.692 330.492, 169 325.554 C 146.846 321.123, 123.305 312.717, 106.500 303.236 C 98.039 298.462, 83.206 288.159, 81.042 285.551 C 78.852 282.911, 77.671 283.845, 79.525 286.750 M 608.278 285.250 C 606.324 287.777, 605.657 289.330, 606.840 288.599 C 608.024 287.867, 610.393 284, 609.658 284 C 609.431 284, 608.810 284.563, 608.278 285.250 M 511.110 301.345 C 511.049 302.359, 510.049 306.321, 508.886 310.148 C 507.724 313.975, 507.049 317.382, 507.386 317.720 C 507.724 318.057, 508.014 317.471, 508.030 316.417 C 508.060 314.528, 508.077 314.528, 509.173 316.416 C 510.216 318.214, 510.362 318.225, 511.545 316.608 C 512.716 315.007, 512.919 315.046, 514.403 317.164 C 516.523 320.192, 516.535 317.743, 514.430 311.876 C 513.566 309.469, 512.490 305.700, 512.039 303.500 C 511.588 301.300, 511.170 300.330, 511.110 301.345 M 409.012 305.500 C 411.894 309.694, 419.625 317.218, 422.500 318.627 L 425.500 320.097 422.500 317.878 C 420.850 316.657, 416.831 312.923, 413.569 309.579 C 410.307 306.236, 408.256 304.400, 409.012 305.500 M 345.163 311.878 C 344.427 312.345, 343.977 313.800, 344.163 315.113 C 344.429 317.001, 345.105 317.500, 347.391 317.500 C 350.990 317.500, 352.962 314.864, 351.070 312.584 C 349.628 310.846, 347.240 310.561, 345.163 311.878 M 671.998 313.004 C 670.481 315.838, 672.416 318.207, 675.914 317.801 C 678.054 317.552, 678.500 316.982, 678.500 314.500 C 678.500 311.989, 678.063 311.449, 675.817 311.190 C 673.906 310.969, 672.808 311.491, 671.998 313.004 M 362 315.943 C 362 316.462, 363 317.587, 364.223 318.443 C 366.425 319.986, 366.426 320, 364.345 320 C 361.744 320, 359.577 322.455, 360.365 324.510 C 361.359 327.099, 363.963 327.384, 366.328 325.162 C 367.840 323.741, 369.347 323.243, 371.027 323.609 C 373.417 324.130, 373.435 324.095, 371.559 322.574 C 370.491 321.708, 369.071 321, 368.402 321 C 367.660 321, 367.401 320.182, 367.737 318.898 C 368.059 317.666, 367.710 316.430, 366.893 315.913 C 365.042 314.741, 362 314.759, 362 315.943 M 656.750 316.080 C 655.788 316.641, 655 317.714, 655 318.466 C 655 319.218, 653.763 320.794, 652.250 321.968 C 649.740 323.917, 649.699 324.049, 651.778 323.476 C 653.421 323.023, 654.553 323.462, 655.840 325.051 C 657.155 326.675, 658.208 327.069, 659.847 326.549 C 661.784 325.934, 662.034 325.243, 661.796 321.172 C 661.454 315.339, 660.198 314.072, 656.750 316.080 M 624.500 317.638 C 614.003 318.882, 605.810 320.655, 601.221 322.676 C 598.318 323.954, 595.161 325, 594.205 325 C 593.156 325, 591.110 327.269, 589.041 330.729 C 584.422 338.451, 571.880 350.534, 562.994 355.823 C 555.541 360.259, 537.259 367, 532.682 367 C 531.272 367, 529.866 367.408, 529.558 367.907 C 529.248 368.408, 533.331 369.138, 538.686 369.540 C 566.702 371.640, 597.460 359.673, 617.595 338.841 C 624.978 331.202, 634.610 319.252, 633.906 318.606 C 633.106 317.872, 627.444 317.289, 624.500 317.638 M 558.624 329.539 C 557.659 332.053, 557.943 332.702, 559.122 330.675 C 559.706 329.671, 559.973 328.639, 559.715 328.382 C 559.458 328.124, 558.966 328.645, 558.624 329.539 M 378.667 329.667 C 377.443 330.890, 377.981 334.055, 379.513 334.643 C 380.345 334.963, 381.706 334.659, 382.538 333.968 C 383.882 332.853, 383.863 332.507, 382.370 330.857 C 380.576 328.874, 379.731 328.602, 378.667 329.667 M 639.965 331.542 C 639.041 332.656, 638.988 333.388, 639.775 334.175 C 641.351 335.751, 644 334.407, 644 332.031 C 644 329.629, 641.776 329.360, 639.965 331.542 M 430 339.434 C 433.950 343.753, 444.653 352, 446.307 352 C 446.905 352, 445.393 350.561, 442.947 348.801 C 440.501 347.042, 435.800 343.353, 432.500 340.605 C 427.185 336.178, 426.900 336.045, 430 339.434 M 589.500 340.703 C 586.750 343.247, 581.130 347.536, 577.011 350.236 C 567.934 356.185, 567.120 356.942, 572.977 353.987 C 578.786 351.056, 586.480 345.276, 591.453 340.108 C 596.700 334.655, 595.715 334.955, 589.500 340.703 M 631.500 339 C 630.684 340.320, 631.880 342.192, 633.069 341.457 C 634.284 340.707, 634.276 338, 633.059 338 C 632.541 338, 631.840 338.450, 631.500 339 M 392.188 340.063 C 392.428 340.784, 393.216 341.572, 393.938 341.813 C 394.688 342.063, 395.063 341.688, 394.813 340.938 C 394.572 340.216, 393.784 339.428, 393.063 339.188 C 392.313 338.938, 391.938 339.313, 392.188 340.063 M 122.599 366.024 C 128.610 373.928, 138.095 383.497, 145.347 388.973 C 151.565 393.667, 155.611 399.017, 176.751 430.500 C 192.222 453.540, 203.019 466.925, 216.734 480.067 C 229.843 492.629, 243.064 501.743, 260 509.894 C 284.738 521.800, 306.417 526.850, 336.553 527.727 C 373.113 528.791, 405.671 522.846, 449 507.196 C 462.233 502.417, 462.494 502.264, 462.189 499.514 C 461.653 494.673, 453.249 478.041, 445.272 466.033 C 430.823 444.285, 408.315 425.045, 385.782 415.183 C 356.661 402.438, 332.354 400.300, 270 404.997 C 255.455 406.093, 224.189 406.117, 215.500 405.038 L 209.500 404.294 217 404.131 C 231.623 403.814, 248.806 401.937, 273 398.014 C 312.871 391.549, 324.258 391.012, 349.186 394.422 C 360.192 395.927, 359.394 394.873, 347.500 392.192 C 325.171 387.158, 319.657 386.944, 239 387.981 C 209.849 388.356, 202.562 388.153, 192 386.674 C 163.695 382.710, 141.071 375.019, 124.150 363.608 C 121.207 361.624, 118.623 360, 118.408 360 C 118.193 360, 120.079 362.711, 122.599 366.024 M 900.500 362.566 C 895.342 366.855, 873.971 376.760, 863 379.946 C 836.718 387.579, 808.241 389.952, 764.500 388.155 C 712.475 386.018, 697.560 386.808, 673.581 392.970 C 665.770 394.977, 661.667 396.785, 667.500 395.650 C 679.466 393.320, 685.580 392.817, 701 392.889 C 718.970 392.974, 724.770 393.619, 755 398.895 C 773.456 402.117, 789.545 403.910, 802 404.133 C 809.380 404.265, 809.420 404.280, 804.500 405.046 C 796.193 406.340, 766.567 406.051, 748.500 404.499 C 728.353 402.769, 689.985 402.505, 678 404.015 C 644.508 408.233, 617.846 421.788, 593.831 446.808 C 579.827 461.399, 569.074 478.422, 561.637 497.780 C 560.364 501.091, 560.276 502.158, 561.246 502.494 C 615.582 521.318, 639.084 526.692, 671.500 527.706 C 704.593 528.742, 732.921 523.540, 760.343 511.392 C 778.367 503.408, 794.223 492.335, 810.155 476.607 C 824.801 462.148, 833.364 451.126, 851.413 423.500 C 866.569 400.302, 871.772 393.474, 878.062 388.533 C 885.764 382.481, 894.859 373.312, 900.447 365.965 C 905.301 359.582, 905.317 358.561, 900.500 362.566 M 506.500 382.914 C 489.789 387.102, 482.476 406.984, 492.617 420.655 C 499.774 430.304, 516.450 432.233, 526.491 424.575 C 536.460 416.971, 537.818 400.989, 529.337 391.080 C 523.898 384.726, 513.749 381.097, 506.500 382.914 M 126.243 406.157 C 123.344 409.056, 125.936 413.430, 130.195 412.827 C 132.100 412.557, 132.500 411.893, 132.500 409 C 132.500 406.009, 132.136 405.457, 129.993 405.207 C 128.614 405.046, 126.927 405.473, 126.243 406.157 M 890.667 405.667 C 890.300 406.033, 890 407.578, 890 409.099 C 890 412.150, 892.550 413.595, 896 412.500 C 898.481 411.712, 898.796 406.520, 896.418 405.607 C 894.330 404.806, 891.498 404.835, 890.667 405.667 M 186 414.484 C 186 414.868, 190.658 420.653, 196.351 427.341 C 227.884 464.384, 265.364 491.403, 301 502.782 C 321.631 509.370, 329.393 510.509, 353 510.411 C 376.238 510.314, 390.656 508.551, 410 503.442 C 417.678 501.413, 442.618 493.306, 443.795 492.456 C 444.202 492.162, 438.715 482.941, 434.078 476.124 C 426.458 464.921, 411.454 450.443, 398 441.311 C 389.289 435.397, 373.790 427.927, 365.102 425.454 C 362.988 424.852, 363.138 425.204, 366.375 428.442 C 371.385 433.451, 374.528 438.665, 377.064 446.171 C 379.983 454.813, 379.490 468.909, 375.985 477 C 370.530 489.592, 361.685 498.016, 348.994 502.703 C 323.905 511.969, 296.696 498.680, 287.947 472.887 C 286.143 467.569, 285.859 464.947, 286.252 457.221 C 286.667 449.078, 287.172 447.037, 290.381 440.544 C 294.165 432.888, 300.452 425.524, 306.194 422.023 C 310.178 419.594, 310.983 419.611, 287.490 421.642 C 260.671 423.960, 226.237 423.991, 214.268 421.707 C 205.784 420.087, 191.968 416.353, 187.750 414.539 C 186.787 414.125, 186 414.100, 186 414.484 M 834 415.197 C 828.306 417.391, 811.672 421.015, 800.667 422.457 C 785.879 424.396, 769.872 424.412, 745.547 422.513 C 715.582 420.174, 714.719 420.128, 715.634 420.890 C 716.110 421.286, 718.228 422.877, 720.340 424.425 C 726.269 428.770, 732.724 438.282, 735.138 446.230 C 738.247 456.463, 737.480 469.241, 733.210 478.365 C 717.223 512.529, 668.833 514.637, 649.737 482 C 639.969 465.306, 643.378 440.996, 657.253 428.405 C 661.613 424.449, 661.288 424.321, 653.604 426.964 C 632.979 434.060, 609.046 451.179, 594.519 469.226 C 587.906 477.442, 580 489.658, 580 491.662 C 580 492.806, 602.755 500.632, 615.500 503.871 C 636.525 509.215, 646.465 510.422, 669.500 510.431 C 688.670 510.439, 692.851 510.147, 702 508.163 C 731.799 501.703, 760.404 487.817, 786.481 467.155 C 796.862 458.930, 816.885 439.065, 827.741 426.221 C 832.984 420.017, 837.100 414.782, 836.887 414.587 C 836.674 414.392, 835.375 414.667, 834 415.197 M 871.667 423.667 C 870.191 425.143, 871.047 428, 872.965 428 C 874.974 428, 877.438 424.771, 876.298 423.631 C 875.466 422.800, 872.511 422.822, 871.667 423.667 M 148.171 425.669 C 148.365 426.686, 149.555 427.647, 150.849 427.831 C 152.652 428.088, 153.099 427.749, 152.829 426.331 C 152.635 425.314, 151.445 424.353, 150.151 424.169 C 148.348 423.912, 147.901 424.251, 148.171 425.669 M 128.636 430.277 C 127.502 431.106, 126.941 432.538, 127.155 434.056 C 127.430 436.005, 128.086 436.500, 130.391 436.500 C 133.959 436.500, 136.003 433.815, 134.388 431.250 C 132.949 428.966, 130.903 428.620, 128.636 430.277 M 889.746 431.030 C 887.930 432.522, 887.711 433.222, 888.601 434.687 C 891.062 438.740, 897.943 436.548, 896.549 432.156 C 895.674 429.399, 892.394 428.856, 889.746 431.030 M 854.412 447.497 C 851.968 449.941, 851.876 450.305, 853.333 451.762 C 854.633 453.061, 855.394 453.142, 857.463 452.199 C 860.277 450.917, 860.803 447.911, 858.542 446.035 C 857.361 445.054, 856.577 445.332, 854.412 447.497 M 163.657 447.451 C 162.843 449.573, 166.326 453.472, 168.344 452.698 C 170.276 451.957, 170.527 448.927, 168.800 447.200 C 167.154 445.554, 164.332 445.692, 163.657 447.451 M 110.500 451.736 C 101.457 454.978, 96.994 459.688, 94.971 468.123 C 91.750 481.549, 100.786 497.590, 115.376 504.347 C 123.695 508.200, 132.857 510.060, 138.846 509.113 C 141.703 508.662, 144.267 508.066, 144.543 507.791 C 144.819 507.515, 141.482 507.045, 137.129 506.746 C 113.729 505.142, 94.876 483.075, 103.179 467.008 C 107.512 458.624, 114.966 455.924, 126.908 458.414 C 139.803 461.102, 151.857 468.169, 178 488.366 C 206.757 510.583, 232.455 525.851, 253.825 533.417 C 264.846 537.320, 282.491 541.694, 294.261 543.442 C 307.276 545.374, 335.507 545.416, 346 543.518 L 353.500 542.162 345 542.792 C 331.719 543.777, 307.302 543.437, 298.581 542.146 C 271.983 538.207, 246.229 528.658, 220.500 513.194 C 212.232 508.224, 205.696 503.350, 182.232 484.651 C 145.322 455.238, 125.763 446.264, 110.500 451.736 M 893.624 451.915 C 880.765 455.490, 865.877 464.586, 845.758 481.159 C 808.374 511.955, 788.873 523.445, 755.500 534.337 C 734.838 541.081, 726.333 542.331, 700.500 542.420 C 687.850 542.464, 675.475 542.144, 673 541.708 C 670.043 541.187, 669.017 541.244, 670.009 541.873 C 673.152 543.866, 692.442 545.284, 708 544.666 C 737.751 543.485, 762.760 537.168, 791.505 523.576 C 806.580 516.447, 823.255 505.614, 843.949 489.503 C 871.118 468.351, 883.328 461.075, 896.136 458.405 C 906.999 456.140, 914.187 458.276, 919.408 465.323 C 922.522 469.526, 922.344 479.848, 919.046 486.304 C 912.550 499.018, 893.772 509.136, 880.739 506.944 C 875.917 506.133, 875.422 505.563, 876.838 502.457 C 878.599 498.591, 878.250 496.159, 875.545 493.455 C 870.139 488.048, 861 491.867, 861 499.531 C 861 502.236, 861.773 503.926, 864.048 506.202 C 866.799 508.952, 867.507 509.184, 871.298 508.572 C 876.929 507.662, 876.752 507.657, 882.837 508.895 C 893.699 511.106, 910.423 505.442, 919.139 496.601 C 926.226 489.413, 928.500 484.024, 928.500 474.420 C 928.500 467.168, 928.189 465.839, 925.467 461.436 C 919.592 451.935, 907.045 448.184, 893.624 451.915 M 841.975 462.047 C 841.118 463.647, 841.108 464.508, 841.935 465.335 C 843.459 466.859, 846.500 464.907, 846.500 462.405 C 846.500 459.719, 843.354 459.471, 841.975 462.047 M 177 462.378 C 177 463.135, 177.694 464.331, 178.542 465.035 C 180.443 466.613, 182.571 464.931, 181.664 462.567 C 180.923 460.636, 177 460.477, 177 462.378 M 187.506 473.991 C 186.770 475.182, 188.658 478, 190.192 478 C 191.520 478, 190.753 473.740, 189.342 473.276 C 188.705 473.066, 187.878 473.388, 187.506 473.991 M 828.501 476.999 C 826.070 479.488, 824.956 481.343, 825.549 481.913 C 826.807 483.124, 835.496 475.611, 834.569 474.112 C 833.481 472.351, 832.657 472.742, 828.501 476.999 M 194.170 480.170 C 194.390 481.723, 195.277 482.610, 196.830 482.830 C 198.769 483.105, 199.105 482.769, 198.830 480.830 C 198.610 479.277, 197.723 478.390, 196.170 478.170 C 194.231 477.895, 193.895 478.231, 194.170 480.170 M 811.962 491.917 C 808.878 494.516, 808.702 494.914, 810.351 495.563 C 811.369 495.964, 812.494 495.837, 812.851 495.280 C 813.208 494.724, 814.513 493.954, 815.750 493.567 C 818.145 492.820, 818.950 489, 816.712 489 C 816.004 489, 813.866 490.313, 811.962 491.917 M 206 491.090 C 206 492.658, 210.190 495.928, 212.250 495.967 C 215.243 496.024, 214.172 493.452, 210.466 491.685 C 206.301 489.699, 206 489.659, 206 491.090 M 148.039 493.189 C 145.795 495.597, 145.421 499.049, 147.069 502.130 C 147.808 503.510, 147.819 504.514, 147.103 505.375 C 145.653 507.122, 152.090 509.359, 156.059 508.487 C 163.487 506.856, 164.391 495.322, 157.343 492.110 C 153.589 490.400, 150.280 490.783, 148.039 493.189 M 220 502.889 C 220 503.378, 220.868 504.841, 221.929 506.139 C 223.381 507.917, 224.146 508.218, 225.022 507.357 C 226.661 505.747, 224.523 502, 221.965 502 C 220.884 502, 220 502.400, 220 502.889 M 796.557 504.937 C 794.540 507.166, 795.230 509, 798.084 509 C 799.698 509, 802 505.729, 802 503.435 C 802 502.179, 798.071 503.264, 796.557 504.937 M 184.775 511.558 C 183.795 512.538, 185.184 516, 186.558 516 C 188.344 516, 189.139 514.525, 188.396 512.590 C 187.794 511.022, 185.862 510.471, 184.775 511.558 M 835.701 511.632 C 834.519 512.814, 834.922 515.756, 836.341 516.300 C 838.356 517.074, 840.244 515.504, 839.837 513.392 C 839.466 511.466, 836.942 510.392, 835.701 511.632 M 249 518.441 C 249 520.495, 251.070 521.504, 252.046 519.926 C 252.498 519.194, 252.646 518.237, 252.375 517.798 C 251.535 516.438, 249 516.921, 249 518.441 M 196.750 519.080 C 194.365 520.469, 194.545 523.686, 197.083 525.045 C 198.745 525.934, 199.554 525.809, 201.083 524.425 C 203.409 522.320, 203.460 521.603, 201.429 519.571 C 199.607 517.750, 199.121 517.699, 196.750 519.080 M 770.667 518.667 C 769.449 519.885, 769.978 522, 771.500 522 C 772.333 522, 773 521.111, 773 520 C 773 518.008, 771.934 517.399, 770.667 518.667 M 821.200 519.200 C 819.400 521, 819.753 523.798, 821.928 524.961 C 824.370 526.268, 826.745 525.380, 827.545 522.860 C 828.730 519.124, 824.003 516.397, 821.200 519.200 M 359 540 C 357.718 540.828, 357.754 540.972, 359.250 540.985 C 360.212 540.993, 361 540.550, 361 540 C 361 538.780, 360.887 538.780, 359 540 M 385.407 593.970 C 375.818 596.013, 366.443 602.371, 362.733 609.347 C 360.953 612.693, 360.524 615.152, 360.524 622 C 360.524 637.175, 364.973 642.102, 389.645 654.250 C 413.605 666.048, 418.808 671.572, 415.952 682.180 C 412.082 696.550, 387.223 699.411, 371.339 687.314 C 366.987 683.999, 362 676.550, 362 673.363 C 362 672.128, 361.550 670.840, 361 670.500 C 360.354 670.101, 360.003 674.237, 360.010 682.191 L 360.019 694.500 368.439 697.717 C 383.265 703.381, 397.237 704.463, 410.020 700.937 C 427.247 696.185, 436.271 686.020, 436.187 671.462 C 436.107 657.559, 428.511 649.548, 405 638.571 C 383.970 628.752, 378.936 624.426, 378.820 616.074 C 378.694 606.903, 386.273 601, 398.174 601 C 410.413 601, 421.716 607.268, 425.632 616.227 L 427.500 620.500 427.806 613 C 428.346 599.805, 428.315 599.753, 418.235 596.549 C 408.738 593.531, 393.196 592.310, 385.407 593.970 M 91.500 595.954 C 92.600 596.409, 94.625 597.992, 96 599.471 L 98.500 602.161 98.500 646.928 C 98.500 695.713, 98.499 695.726, 92.837 698.232 C 91.277 698.923, 90 699.840, 90 700.270 C 90 700.700, 99 701.009, 110 700.957 C 121.607 700.902, 130 700.471, 130 699.931 C 130 699.419, 129.140 699, 128.089 699 C 127.038 699, 125.013 697.615, 123.589 695.923 L 121 692.847 121 651.048 C 121 628.059, 120.719 607.844, 120.375 606.125 L 119.750 603 132.625 603.028 C 144.046 603.053, 146.008 603.316, 150 605.352 C 157.126 608.986, 160.982 616.231, 160.994 626.007 C 161.012 640.339, 152.377 648.903, 137.067 649.735 C 132.905 649.962, 128.887 650.344, 128.137 650.585 C 126.039 651.260, 128.476 653.675, 133.500 655.897 C 136.698 657.312, 138.564 659.143, 141.118 663.376 C 159.029 693.064, 166.807 703.639, 176.173 711.042 C 187.125 719.700, 197.801 723.356, 212 723.312 C 223.276 723.277, 231.236 720.721, 236.907 715.313 L 240.500 711.887 236 714.191 C 232.237 716.117, 229.945 716.495, 222 716.497 C 213.512 716.500, 211.863 716.187, 206.520 713.564 C 196.275 708.534, 184.807 695.363, 170.643 672.360 C 165.456 663.936, 161.248 659.216, 156.404 656.388 C 154.754 655.425, 155.205 655.125, 159.783 654.142 C 175.468 650.772, 184.785 639.013, 183.743 623.901 C 182.857 611.042, 175.584 602.484, 161.242 597.422 C 154.660 595.099, 153.727 595.043, 122 595.084 C 103.867 595.108, 90.384 595.492, 91.500 595.954 M 198.686 596.950 C 204.458 600.470, 204.480 600.614, 204.722 636 C 204.843 653.875, 205.196 670.331, 205.506 672.568 C 206.347 678.653, 211.205 688.095, 215.381 691.761 C 225.558 700.697, 245.117 704.941, 260.828 701.623 C 275.078 698.613, 283.511 692.806, 288.502 682.568 C 292.442 674.485, 293 668.615, 293 635.268 C 293 607.342, 293.193 603.482, 294.716 600.904 C 295.659 599.307, 296.698 598, 297.024 598 C 297.351 598, 298.491 597.339, 299.559 596.532 C 301.299 595.216, 300.179 595.060, 288.750 595.032 C 280.895 595.012, 276 595.384, 276 596 C 276 596.550, 276.867 597, 277.927 597 C 278.988 597, 280.813 598.218, 281.984 599.707 C 284.080 602.371, 284.108 602.975, 283.807 638.031 L 283.500 673.648 280.500 679.483 C 276.457 687.349, 270.607 691.380, 260.847 693.026 C 245.595 695.598, 235.033 691.794, 229.958 681.898 C 226.508 675.171, 225.831 666.667, 226.173 634.349 C 226.464 606.825, 226.695 603.111, 228.263 600.720 C 229.232 599.241, 231.145 597.751, 232.513 597.407 C 238.978 595.785, 233.345 595, 215.250 595.004 L 195.500 595.007 198.686 596.950 M 449.088 597.280 C 455.054 601.301, 454.969 600.580, 454.985 647.282 C 455.002 694.468, 454.875 695.560, 449.106 698.114 C 447.398 698.870, 446 699.828, 446 700.244 C 446 701.157, 484.396 701.271, 485.306 700.360 C 485.658 700.008, 484.502 698.996, 482.737 698.110 C 477.419 695.442, 477.031 693.587, 477.015 670.750 L 477 650 502.571 650 L 528.142 650 527.821 671.436 L 527.500 692.873 524.563 695.936 C 522.948 697.621, 520.783 699, 519.754 699 C 518.724 699, 518.143 699.422, 518.461 699.938 C 519.212 701.152, 557.677 701.331, 558.424 700.124 C 558.733 699.623, 557.850 698.928, 556.462 698.580 C 555.074 698.231, 553.054 696.496, 551.973 694.723 C 550.098 691.648, 550.007 689.477, 550.004 647.473 C 550 598.921, 549.743 600.957, 556.367 596.918 L 559.500 595.007 538.500 595.043 C 519.584 595.075, 517.821 595.218, 520.730 596.483 C 522.507 597.255, 524.868 599.375, 525.977 601.193 C 527.808 604.198, 527.993 606.214, 527.996 623.250 L 528 642 502.500 642 L 477 642 477.035 622.750 C 477.075 601.452, 477.437 599.913, 483.119 596.885 C 486.475 595.097, 486.347 595.084, 466.102 595.042 L 445.704 595 449.088 597.280 M 599.508 596.486 C 603.092 598.061, 605.502 600.560, 606.845 604.091 C 607.682 606.293, 606.673 609.351, 600.084 624.590 C 595.825 634.440, 587.493 653.750, 581.570 667.500 C 571.302 691.336, 567.919 697.256, 563.824 698.556 C 562.821 698.874, 562 699.572, 562 700.106 C 562 701.342, 586.795 701.140, 587.563 699.898 C 587.868 699.404, 587.495 699, 586.733 699 C 584.815 699, 581 694.747, 581 692.608 C 581 691.639, 583.121 685.930, 585.712 679.923 L 590.425 669 612.462 669.024 L 634.500 669.047 638.688 679.274 C 640.992 684.898, 643.137 690.442, 643.456 691.593 C 644.115 693.975, 640.704 699, 638.427 699 C 637.642 699, 637 699.450, 637 700 C 637 700.633, 644.333 701, 657 701 C 668 701, 677 700.622, 677 700.161 C 677 699.699, 675.921 698.830, 674.603 698.229 C 670.834 696.512, 667.134 690.869, 662.492 679.762 C 660.134 674.118, 654.506 660.725, 649.985 650 C 645.464 639.275, 640.206 626.675, 638.299 622 C 636.393 617.325, 632.805 609.337, 630.327 604.250 L 625.822 595 611.161 595.082 C 598.112 595.154, 596.831 595.309, 599.508 596.486 M 682.675 596.459 C 689.153 599.277, 689.003 598.093, 689.076 646.797 C 689.149 695.174, 689.149 695.175, 683.276 698.110 C 681.504 698.996, 680.342 700.008, 680.694 700.360 C 681.604 701.271, 720 701.157, 720 700.244 C 720 699.828, 718.763 698.939, 717.250 698.268 C 712.081 695.974, 711.529 693.933, 711.166 675.780 L 710.832 659.061 715.213 654.424 L 719.594 649.788 722.437 654.144 C 727.647 662.128, 747.673 688.453, 751.110 691.838 C 757.805 698.431, 766.178 701, 780.967 701 C 790.113 701, 793 700.480, 793 698.834 C 793 698.310, 792.544 698.164, 791.987 698.508 C 790.679 699.317, 781.276 694.876, 777.872 691.842 C 774.306 688.664, 758.838 669.192, 745.500 651.090 C 742.121 646.504, 735.552 638.538, 734.562 637.825 C 733.208 636.850, 766.365 603.016, 771.868 599.758 C 774.416 598.250, 777.711 597.013, 779.191 597.008 C 780.671 597.004, 782.160 596.550, 782.500 596 C 782.904 595.347, 777.285 595.035, 766.309 595.100 C 757.064 595.155, 750.582 595.502, 751.905 595.872 C 755.442 596.862, 756.688 599.346, 755.118 602.279 C 754.409 603.604, 744.192 614.317, 732.414 626.086 L 711 647.483 711.006 627.491 C 711.012 604.317, 711.689 600.706, 716.567 597.828 C 718.455 596.714, 720 595.622, 720 595.401 C 720 595.181, 710.888 595.018, 699.750 595.039 C 681.640 595.074, 679.835 595.224, 682.675 596.459 M 790.481 604.413 C 789.649 615.504, 790.128 617.855, 792.228 613 C 793.973 608.966, 797.381 605.557, 801.061 604.163 C 802.470 603.630, 808.657 602.867, 814.811 602.468 L 826 601.743 826 647.448 L 826 693.154 823.077 696.077 C 821.469 697.685, 819.444 699, 818.577 699 C 817.710 699, 817 699.417, 817 699.926 C 817 700.460, 825.473 700.897, 837 700.958 C 848 701.016, 856.990 700.712, 856.978 700.282 C 856.966 699.852, 855.504 698.825, 853.728 698 C 848.276 695.466, 848.126 694.026, 848.322 646 L 848.500 602.500 859.821 602.678 C 874.078 602.902, 879.234 604.990, 882.750 611.962 L 885 616.424 885 605.712 L 885 595 838.093 595 L 791.187 595 790.481 604.413 M 893 595.453 C 893 595.702, 894.513 596.624, 896.361 597.501 C 898.210 598.379, 900.235 600.221, 900.861 601.595 C 901.656 603.340, 902 617.065, 902 647.079 C 902 694.623, 901.851 695.898, 896.021 698.349 C 894.341 699.055, 893.274 699.941, 893.650 700.317 C 894.590 701.256, 933 701.185, 933 700.244 C 933 699.828, 931.723 698.923, 930.163 698.232 C 924.508 695.729, 924.500 695.659, 924.500 647.555 C 924.500 606.710, 924.635 603.207, 926.302 600.661 C 927.294 599.149, 929.206 597.492, 930.552 596.980 C 931.899 596.468, 933 595.813, 933 595.525 C 933 595.236, 924 595, 913 595 C 902 595, 893 595.204, 893 595.453 M 611.731 619.684 C 611.436 620.683, 607.507 629.825, 603 640 C 598.493 650.175, 594.571 659.288, 594.286 660.250 C 593.805 661.873, 595.122 662, 612.383 662 C 623.304 662, 631 661.612, 631 661.062 C 631 659.690, 614.122 619.722, 613.119 618.719 C 612.651 618.251, 612.026 618.685, 611.731 619.684 M 508.734 738.288 C 507.233 740.604, 504.204 744.509, 502.002 746.964 C 497.370 752.130, 496.642 757.121, 499.934 761.139 L 501.868 763.500 506.725 758.744 L 511.582 753.987 515.494 757.994 C 517.645 760.197, 519.941 762, 520.594 762 C 522.223 762, 525.109 754.476, 524.323 752.280 C 523.972 751.301, 521.347 747.575, 518.489 744 C 515.631 740.425, 512.881 736.729, 512.378 735.788 C 511.597 734.327, 511.061 734.694, 508.734 738.288 M 265.500 743.028 C 228.259 747.135, 205.202 762.987, 210.028 781.166 C 212.117 789.035, 217.810 793, 227.018 793 C 234.854 793, 240.435 789.318, 241.515 783.434 C 241.812 781.820, 241.669 779.922, 241.197 779.216 C 239.782 777.096, 237 778.936, 237 781.992 C 237 785.749, 232.902 788.344, 226.832 788.432 C 218.012 788.560, 212.646 781.264, 215.221 772.645 C 219.032 759.891, 240.286 750.210, 269.500 747.924 C 308.335 744.884, 348.804 756.049, 393 781.998 C 399.325 785.711, 408.491 790.901, 413.368 793.529 C 420.695 797.479, 422.035 797.935, 421.083 796.154 C 420.448 794.970, 418.933 793.397, 417.715 792.660 C 416.497 791.924, 410.550 788.172, 404.500 784.323 C 374.310 765.118, 352.865 755.016, 329.569 749.025 C 308.944 743.721, 282.047 741.203, 265.500 743.028 M 524.441 743.096 C 523.368 744.831, 526.720 747.680, 528.150 746.250 C 529.037 745.363, 529.009 744.716, 528.035 743.542 C 526.527 741.725, 525.376 741.582, 524.441 743.096 M 544.927 743.694 C 544.120 744.846, 540.701 747.621, 537.329 749.861 C 526.202 757.251, 524.369 761.353, 528.590 769.415 L 531.405 774.793 534.453 772.511 C 536.129 771.256, 540.087 769.020, 543.249 767.542 C 547.438 765.585, 549.170 764.173, 549.630 762.339 C 550.514 758.817, 549.497 749.169, 547.809 745.050 C 546.420 741.664, 546.367 741.639, 544.927 743.694 M 727.948 742.978 C 695.791 746.085, 664.236 756.568, 635.687 773.629 C 622.324 781.615, 608.823 790.689, 604 794.926 L 600.500 798.001 605.500 796.164 C 608.250 795.154, 615.198 791.280, 620.940 787.556 C 642.888 773.322, 669.915 760.872, 692.500 754.591 C 731.051 743.870, 769.858 745.270, 794.321 758.263 C 808.048 765.553, 813.149 778.490, 805.001 785.346 C 797.975 791.258, 786 789.119, 786 781.952 C 786 778.956, 783.895 777.505, 782.122 779.278 C 780.498 780.902, 780.742 783.065, 782.960 786.701 C 785.618 791.062, 789.804 793, 796.564 793 C 804.024 793, 809.289 790.101, 812 784.500 C 818.723 770.611, 806.581 755.452, 782.500 747.669 C 769.836 743.576, 744.399 741.389, 727.948 742.978 M 474.536 749.250 C 473.609 752.688, 472.996 757.518, 473.175 759.984 C 473.496 764.411, 473.588 764.516, 480.483 768.278 C 484.323 770.374, 488.409 772.975, 489.563 774.059 L 491.660 776.029 494.232 770.069 L 496.803 764.109 494.733 759.925 C 493.548 757.530, 490.957 754.621, 488.672 753.120 C 486.477 751.679, 482.900 748.813, 480.723 746.750 C 478.546 744.688, 476.643 743, 476.493 743 C 476.344 743, 475.463 745.813, 474.536 749.250 M 458.190 756.750 C 458.376 757.712, 459.190 758.500, 460 758.500 C 460.810 758.500, 461.624 757.712, 461.810 756.750 C 462.046 755.522, 461.506 755, 460 755 C 458.494 755, 457.954 755.522, 458.190 756.750 M 283 758.490 C 274.876 760.117, 266.220 763.946, 263.174 767.261 C 260.477 770.194, 260.519 774.684, 263.259 776.399 C 265.843 778.017, 270.409 775.214, 270.812 771.762 C 271.015 770.027, 272.246 768.397, 274.312 767.127 C 289.107 758.034, 328.583 760.425, 363.448 772.526 C 367.269 773.852, 370.535 774.798, 370.705 774.628 C 371.575 773.758, 348.380 763.855, 341.220 762.041 C 321.832 757.127, 297.280 755.629, 283 758.490 M 505.776 762.853 C 503.178 766.068, 499.650 771.354, 497.936 774.599 C 495.176 779.827, 494.862 781.254, 495.185 787.111 C 495.467 792.231, 496.162 794.646, 498.266 797.826 C 501.674 802.976, 499.168 802.293, 495.561 797.088 C 492.634 792.864, 491 787.991, 491 783.484 C 491 777.583, 486.214 773.649, 468.749 765.196 C 468.336 764.996, 468.191 765.433, 468.426 766.166 C 468.660 766.900, 469.093 770.303, 469.386 773.728 C 470.408 785.636, 478.673 797.768, 489.248 802.881 C 493.628 804.998, 495.338 805.179, 511.291 805.210 C 527.826 805.242, 528.804 805.133, 533.543 802.726 C 545.880 796.460, 553.111 785.916, 554.725 771.840 L 555.604 764.181 545.898 769.051 C 534.646 774.697, 532 777.599, 532 784.290 C 532 789.645, 527.727 798.490, 524 800.849 C 521.543 802.405, 521.530 802.397, 523.212 800.429 C 528.670 794.045, 529.704 782.953, 525.610 774.722 C 523.368 770.215, 512.436 756.949, 511 756.992 C 510.725 757.001, 508.374 759.638, 505.776 762.853 M 699.894 758.068 C 686.176 760.085, 665.563 766.812, 653.781 773.117 C 649.783 775.257, 652.948 774.977, 659.612 772.601 C 669.757 768.983, 684.156 765.280, 695.500 763.371 C 709.403 761.032, 730.609 761.045, 738.470 763.397 C 748.032 766.259, 751.645 768.475, 752.329 771.897 C 753.375 777.124, 761.005 778.709, 762.497 774.010 C 764.309 768.301, 754.422 761.582, 739.792 758.581 C 731.492 756.878, 709.877 756.600, 699.894 758.068 M 488.232 764 C 488.232 765.925, 488.438 766.712, 488.689 765.750 C 488.941 764.788, 488.941 763.212, 488.689 762.250 C 488.438 761.288, 488.232 762.075, 488.232 764 M 534 765.500 C 534 766.875, 534.173 768, 534.383 768 C 534.594 768, 534.982 766.875, 535.245 765.500 C 535.508 764.125, 535.335 763, 534.861 763 C 534.388 763, 534 764.125, 534 765.500 M 441 766.074 C 434.636 767.914, 434.745 767.810, 436.843 770.061 C 437.911 771.208, 439.754 774.804, 440.938 778.051 C 442.122 781.298, 444.235 785.315, 445.634 786.977 C 448.041 789.838, 448.573 790, 455.555 790 C 460.398 790, 464.142 790.577, 466.454 791.679 C 468.390 792.603, 470.226 793.107, 470.534 792.799 C 470.842 792.492, 470.182 790.493, 469.069 788.357 C 467.956 786.222, 466.428 781.211, 465.674 777.222 C 464.920 773.233, 464.122 769.850, 463.901 769.705 C 458.310 766.022, 447.245 764.268, 441 766.074 M 567.637 766.465 C 561.693 768.584, 558.347 772.366, 557.587 777.823 C 557.229 780.395, 555.843 784.731, 554.509 787.458 C 553.174 790.184, 552.193 792.526, 552.329 792.662 C 552.465 792.799, 554.359 792.275, 556.538 791.499 C 558.717 790.723, 563.957 790.068, 568.182 790.044 C 576.916 789.994, 577.306 789.682, 582 779 C 583.329 775.975, 585.223 772.306, 586.208 770.846 C 587.194 769.386, 588 767.961, 588 767.678 C 588 766.905, 578.350 764.994, 574.701 765.044 C 572.940 765.068, 569.762 765.707, 567.637 766.465 M 406.153 771.247 C 405.519 771.881, 405 773.240, 405 774.266 C 405 775.711, 405.619 776.061, 407.741 775.816 C 411.035 775.436, 411.933 772.570, 409.214 771.114 C 407.873 770.397, 406.964 770.436, 406.153 771.247 M 612.667 771.667 C 611.257 773.076, 612.094 775.895, 614.112 776.535 C 616.717 777.362, 619.331 775.027, 618.430 772.678 C 617.797 771.029, 613.975 770.359, 612.667 771.667 M 329.200 774.200 C 327.449 775.951, 327.730 777.785, 329.928 778.961 C 332.369 780.268, 335 779.299, 335 777.093 C 335 775.172, 333.143 773, 331.500 773 C 330.895 773, 329.860 773.540, 329.200 774.200 M 689.200 774.200 C 686.580 776.820, 689.300 780.674, 692.952 779.515 C 696.193 778.486, 694.971 773, 691.500 773 C 690.895 773, 689.860 773.540, 689.200 774.200 M 509.488 783.392 C 507.917 788.797, 507.921 789.529, 509.557 795.571 C 510.514 799.107, 511.628 802, 512.032 802 C 513.122 802, 513.175 780.739, 512.090 779.071 C 511.405 778.017, 510.720 779.155, 509.488 783.392 M 351.578 784.416 C 345.325 786.754, 341.807 790.953, 341.251 796.741 C 340.673 802.754, 342.716 807.247, 347.299 810.040 C 350.755 812.148, 358.146 812.656, 362.312 811.071 C 365.128 810.001, 367.584 804.479, 365.749 803.345 C 365.127 802.961, 364.439 803.184, 364.220 803.841 C 363.346 806.461, 360.666 808, 356.976 808 C 350.389 808, 347.610 805.985, 345.633 799.778 C 344.509 796.249, 347 792.179, 351.668 789.919 C 355.604 788.013, 357.338 787.800, 365.338 788.236 C 375.910 788.812, 383.073 791.233, 411.900 803.976 C 421.580 808.255, 433.100 812.904, 437.500 814.307 C 448.857 817.927, 460.212 821.007, 462.191 821.003 C 463.121 821.001, 464.182 821.485, 464.548 822.077 C 465.808 824.116, 453.066 821.516, 430 815.026 C 410.660 809.585, 396.379 810.798, 397.190 817.813 C 397.632 821.647, 402.048 822.102, 404.374 818.552 C 407.272 814.130, 416.099 815.080, 441 822.495 C 461.963 828.737, 482.912 828.420, 497.328 821.644 C 502.970 818.992, 508 814.709, 508 812.556 C 508 811.602, 506.331 812.097, 502.445 814.201 C 491.796 819.969, 480.248 821.397, 467 818.586 C 454.681 815.972, 431.448 807.752, 411.500 798.951 C 384.856 787.195, 375.046 783.975, 364.137 783.402 C 358.031 783.082, 354.351 783.379, 351.578 784.416 M 597.407 784.382 C 596.549 786.618, 597.780 788, 600.629 788 C 602.660 788, 603.078 787.571, 602.820 785.750 C 602.439 783.069, 598.311 782.026, 597.407 784.382 M 651.500 783.668 C 640.595 786.044, 632.304 789.294, 606 801.502 C 592.624 807.710, 565.341 816.798, 553.198 819.091 C 543.617 820.900, 533.635 819.765, 523.569 815.724 C 518.856 813.832, 515 812.616, 515 813.023 C 515 813.430, 516.435 815.165, 518.188 816.880 C 524.196 822.754, 540.585 827.223, 555.500 827.056 C 565.716 826.941, 571.287 825.865, 589 820.583 C 595.875 818.533, 604.689 816.604, 608.587 816.296 C 615.349 815.762, 615.790 815.861, 618.196 818.456 C 621.677 822.210, 625.500 821.716, 625.500 817.513 C 625.500 809.678, 611.547 809.437, 586.908 816.846 C 575.071 820.405, 567.908 821.992, 561.908 822.384 C 555.077 822.830, 554.339 822.754, 557.974 821.980 C 571.141 819.177, 598.194 810.314, 608.800 805.328 C 637.808 791.691, 648.671 788, 659.792 788 C 668.456 788, 671.757 788.911, 675.060 792.214 C 678.325 795.479, 678.760 798.629, 676.538 802.926 C 673.533 808.738, 661.781 810.323, 659.513 805.221 C 658.207 802.284, 657 802.399, 657 805.461 C 657 810.373, 661.228 812.534, 670 812.107 C 676.855 811.774, 682.537 805.403, 682.432 798.168 C 682.292 788.481, 674.391 782.936, 661 783.126 C 656.875 783.184, 652.600 783.428, 651.500 783.668 M 423.187 785.750 C 423.370 786.712, 424.528 787.644, 425.760 787.820 C 427.461 788.062, 428 787.641, 428 786.070 C 428 784.513, 427.362 784, 425.427 784 C 423.515 784, 422.939 784.450, 423.187 785.750 M 445 793.184 L 442.500 794.242 445.430 795.082 C 447.041 795.545, 450.641 798.128, 453.430 800.822 C 464.007 811.043, 471.405 814.563, 481.658 814.255 C 488.428 814.052, 500 810.826, 500 809.141 C 500 808.747, 498.538 808.320, 496.750 808.190 C 492.403 807.875, 480.266 802.051, 475.816 798.143 C 473.847 796.415, 471.395 794.984, 470.368 794.965 C 469.341 794.945, 467.375 794.286, 466 793.500 C 463.028 791.801, 448.777 791.587, 445 793.184 M 554.918 793.756 C 552.398 794.715, 548.573 796.850, 546.418 798.500 C 540.612 802.946, 536.414 805.083, 528.667 807.540 L 521.707 809.747 527.603 812.075 C 532.086 813.846, 535.538 814.416, 542 814.452 C 553.227 814.515, 559.425 811.703, 569.420 802.012 C 575.814 795.812, 577.106 794.993, 580.576 794.937 C 588.494 794.809, 579.978 792.889, 569.500 792.440 C 561.628 792.103, 558.525 792.383, 554.918 793.756 M 596 800 C 594.075 801.054, 593.175 801.925, 594 801.936 C 594.825 801.947, 596.625 801.076, 598 800 C 601.143 797.542, 600.491 797.542, 596 800 M 435.347 800.537 C 434.604 802.474, 437.708 806, 440.155 806 C 442.685 806, 442.470 803.790, 439.686 801.174 C 436.942 798.597, 436.137 798.478, 435.347 800.537 M 387.011 803.487 C 385.257 805.600, 386.508 808, 389.362 808 C 392.350 808, 393.443 805.586, 391.386 803.529 C 389.472 801.615, 388.571 801.607, 387.011 803.487 M 633.040 803.452 C 631.993 804.713, 631.993 805.287, 633.040 806.548 C 635.045 808.964, 638.500 807.984, 638.500 805 C 638.500 802.016, 635.045 801.036, 633.040 803.452 M 505.862 820.393 C 495.558 827.900, 494.623 832.257, 501.623 840.138 C 504.165 843.001, 507.462 848.066, 508.948 851.394 L 511.650 857.445 514.157 851.973 C 515.537 848.963, 518.538 844.339, 520.826 841.697 C 526.796 834.805, 527.331 833.534, 525.983 829.449 C 525.008 826.493, 517.571 819.527, 512.500 816.819 C 511.950 816.525, 508.963 818.133, 505.862 820.393 M 512.079 822.583 C 512.127 823.748, 512.364 823.985, 512.683 823.188 C 512.972 822.466, 512.936 821.603, 512.604 821.271 C 512.272 820.939, 512.036 821.529, 512.079 822.583 M 515.813 831.137 C 515.630 832.976, 514.621 834.853, 513.374 835.676 C 511.463 836.937, 510.942 836.822, 508.230 834.540 C 503.770 830.787, 503.275 831.455, 507.253 835.858 C 509.170 837.981, 511.023 840.343, 511.369 841.108 C 511.858 842.186, 512.132 842.216, 512.586 841.241 C 512.909 840.549, 514.724 838.126, 516.619 835.857 C 519.886 831.947, 519.978 831.633, 518.378 829.866 C 516.191 827.449, 516.181 827.454, 515.813 831.137" fill="#8B1538"/>
  </g>
</svg>